<?xml version="1.0" standalone="no"?>
<!DOCTYPE svg PUBLIC "-//W3C//DTD SVG 20010904//EN"
 "http://www.w3.org/TR/2001/REC-SVG-20010904/DTD/svg10.dtd">
<svg version="1.0" xmlns="http://www.w3.org/2000/svg"
 width="700.000000pt" height="700.000000pt" viewBox="0 0 700.000000 700.000000"
 preserveAspectRatio="xMidYMid meet">
<metadata>
Created by potrace 1.11, written by Peter Selinger 2001-2013
</metadata>
<g transform="translate(0.000000,700.000000) scale(0.100000,-0.100000)"
fill="#000000" stroke="none">
<path d="M3310 6994 c-389 -33 -616 -77 -910 -174 -1045 -344 -1876 -1175
-2220 -2220 -122 -369 -174 -699 -174 -1100 0 -401 52 -731 174 -1100 404
-1226 1470 -2139 2740 -2349 218 -36 339 -45 580 -45 241 0 362 9 580 45 889
147 1691 640 2235 1373 324 438 547 962 634 1496 36 219 45 339 45 580 0 241
-9 361 -45 580 -174 1064 -853 2004 -1812 2511 -392 207 -793 331 -1242 384
-126 15 -493 27 -585 19z m-462 -2371 l-3 -58 -60 -6 c-33 -3 -70 -9 -83 -13
-54 -18 -52 16 -52 -1048 0 -873 2 -986 16 -1006 22 -32 52 -45 119 -51 l60
-6 3 -57 3 -58 -391 0 -391 0 3 58 3 57 60 6 c67 6 97 19 119 51 14 20 16 133
16 1006 0 1064 2 1030 -52 1048 -13 4 -50 10 -83 13 l-60 6 -3 58 -3 57 391 0
391 0 -3 -57z m830 0 l-3 -58 -71 -6 c-100 -9 -128 -24 -132 -72 -2 -29 60
-227 250 -797 139 -418 256 -754 259 -747 10 17 518 1409 541 1482 31 97 8
121 -127 133 l-70 7 -3 58 -3 57 306 0 306 0 -3 -57 -3 -58 -53 -7 c-60 -7
-93 -31 -122 -89 -11 -20 -194 -504 -409 -1075 -214 -572 -392 -1047 -396
-1056 -6 -15 -19 -18 -70 -18 l-63 0 -50 148 c-385 1141 -685 2017 -698 2037
-23 35 -48 47 -114 54 l-55 6 -3 44 c-6 76 -36 71 398 71 l391 0 -3 -57z"/>
</g>
</svg>
